<mxfile host="app.diagrams.net" agent="Mozilla/5.0 (Windows NT 10.0; Win64; x64) AppleWebKit/537.36 (KHTML, like Gecko) Chrome/130.0.0.0 Safari/537.36" version="24.8.3">
  <diagram name="Page-1" id="k1eEvbsixrbTo2s2sgBK">
    <mxGraphModel dx="1050" dy="570" grid="1" gridSize="10" guides="1" tooltips="1" connect="1" arrows="1" fold="1" page="1" pageScale="1" pageWidth="850" pageHeight="1100" math="0" shadow="0">
      <root>
        <mxCell id="0" />
        <mxCell id="1" parent="0" />
        <mxCell id="_5TekQ03NVME6yGmWp55-1" value="USER" style="shape=umlActor;verticalLabelPosition=bottom;verticalAlign=top;html=1;outlineConnect=0;" parent="1" vertex="1">
          <mxGeometry x="140" y="250" width="30" height="60" as="geometry" />
        </mxCell>
        <mxCell id="_5TekQ03NVME6yGmWp55-4" value="" style="rounded=0;whiteSpace=wrap;html=1;" parent="1" vertex="1">
          <mxGeometry x="240" y="20" width="370" height="570" as="geometry" />
        </mxCell>
        <mxCell id="_5TekQ03NVME6yGmWp55-5" value="" style="ellipse;whiteSpace=wrap;html=1;" parent="1" vertex="1">
          <mxGeometry x="250" y="87" width="120" height="80" as="geometry" />
        </mxCell>
        <mxCell id="_5TekQ03NVME6yGmWp55-7" value="" style="ellipse;whiteSpace=wrap;html=1;" parent="1" vertex="1">
          <mxGeometry x="470" y="87" width="120" height="80" as="geometry" />
        </mxCell>
        <mxCell id="_5TekQ03NVME6yGmWp55-8" value="" style="ellipse;whiteSpace=wrap;html=1;" parent="1" vertex="1">
          <mxGeometry x="250" y="207" width="120" height="80" as="geometry" />
        </mxCell>
        <mxCell id="_5TekQ03NVME6yGmWp55-9" value="" style="ellipse;whiteSpace=wrap;html=1;" parent="1" vertex="1">
          <mxGeometry x="470" y="207" width="120" height="80" as="geometry" />
        </mxCell>
        <mxCell id="_5TekQ03NVME6yGmWp55-12" value="" style="ellipse;whiteSpace=wrap;html=1;" parent="1" vertex="1">
          <mxGeometry x="250" y="367" width="120" height="80" as="geometry" />
        </mxCell>
        <mxCell id="_5TekQ03NVME6yGmWp55-13" value="" style="ellipse;whiteSpace=wrap;html=1;" parent="1" vertex="1">
          <mxGeometry x="250" y="467" width="120" height="80" as="geometry" />
        </mxCell>
        <mxCell id="_5TekQ03NVME6yGmWp55-14" value="" style="ellipse;whiteSpace=wrap;html=1;" parent="1" vertex="1">
          <mxGeometry x="470" y="467" width="120" height="80" as="geometry" />
        </mxCell>
        <mxCell id="_5TekQ03NVME6yGmWp55-15" value="User_Database" style="shape=umlActor;verticalLabelPosition=bottom;verticalAlign=top;html=1;outlineConnect=0;" parent="1" vertex="1">
          <mxGeometry x="710" y="92" width="30" height="60" as="geometry" />
        </mxCell>
        <mxCell id="_5TekQ03NVME6yGmWp55-16" value="Song_Database" style="shape=umlActor;verticalLabelPosition=bottom;verticalAlign=top;html=1;outlineConnect=0;" parent="1" vertex="1">
          <mxGeometry x="710" y="212" width="30" height="60" as="geometry" />
        </mxCell>
        <mxCell id="_5TekQ03NVME6yGmWp55-17" value="Preference_Database" style="shape=umlActor;verticalLabelPosition=bottom;verticalAlign=top;html=1;outlineConnect=0;" parent="1" vertex="1">
          <mxGeometry x="710" y="392" width="30" height="60" as="geometry" />
        </mxCell>
        <mxCell id="_5TekQ03NVME6yGmWp55-18" value="" style="endArrow=none;html=1;rounded=0;entryX=0;entryY=0.5;entryDx=0;entryDy=0;" parent="1" target="_5TekQ03NVME6yGmWp55-5" edge="1">
          <mxGeometry width="50" height="50" relative="1" as="geometry">
            <mxPoint x="170" y="280" as="sourcePoint" />
            <mxPoint x="220" y="230" as="targetPoint" />
          </mxGeometry>
        </mxCell>
        <mxCell id="_5TekQ03NVME6yGmWp55-19" value="" style="endArrow=none;html=1;rounded=0;entryX=0;entryY=0.5;entryDx=0;entryDy=0;" parent="1" target="_5TekQ03NVME6yGmWp55-8" edge="1">
          <mxGeometry width="50" height="50" relative="1" as="geometry">
            <mxPoint x="170" y="280" as="sourcePoint" />
            <mxPoint x="220" y="230" as="targetPoint" />
          </mxGeometry>
        </mxCell>
        <mxCell id="_5TekQ03NVME6yGmWp55-20" value="" style="endArrow=none;html=1;rounded=0;entryX=0;entryY=0.5;entryDx=0;entryDy=0;" parent="1" target="_5TekQ03NVME6yGmWp55-13" edge="1">
          <mxGeometry width="50" height="50" relative="1" as="geometry">
            <mxPoint x="170" y="280" as="sourcePoint" />
            <mxPoint x="220" y="230" as="targetPoint" />
          </mxGeometry>
        </mxCell>
        <mxCell id="_5TekQ03NVME6yGmWp55-21" value="&amp;lt;&amp;lt;include&amp;gt;&amp;gt;" style="html=1;verticalAlign=bottom;endArrow=open;dashed=1;endSize=8;curved=0;rounded=0;entryX=0;entryY=0.5;entryDx=0;entryDy=0;exitX=1;exitY=0.5;exitDx=0;exitDy=0;" parent="1" source="_5TekQ03NVME6yGmWp55-5" target="_5TekQ03NVME6yGmWp55-7" edge="1">
          <mxGeometry relative="1" as="geometry">
            <mxPoint x="460" y="307" as="sourcePoint" />
            <mxPoint x="380" y="307" as="targetPoint" />
          </mxGeometry>
        </mxCell>
        <mxCell id="_5TekQ03NVME6yGmWp55-22" value="&amp;lt;&amp;lt;include&amp;gt;&amp;gt;" style="html=1;verticalAlign=bottom;endArrow=open;dashed=1;endSize=8;curved=0;rounded=0;entryX=0;entryY=0.5;entryDx=0;entryDy=0;exitX=1;exitY=0.5;exitDx=0;exitDy=0;" parent="1" edge="1">
          <mxGeometry relative="1" as="geometry">
            <mxPoint x="370" y="246.5" as="sourcePoint" />
            <mxPoint x="470" y="246.5" as="targetPoint" />
          </mxGeometry>
        </mxCell>
        <mxCell id="_5TekQ03NVME6yGmWp55-23" value="&amp;lt;&amp;lt;include&amp;gt;&amp;gt;" style="html=1;verticalAlign=bottom;endArrow=open;dashed=1;endSize=8;curved=0;rounded=0;entryX=0.5;entryY=0;entryDx=0;entryDy=0;exitX=0.5;exitY=1;exitDx=0;exitDy=0;" parent="1" source="_5TekQ03NVME6yGmWp55-8" target="_5TekQ03NVME6yGmWp55-12" edge="1">
          <mxGeometry x="0.2" y="40" relative="1" as="geometry">
            <mxPoint x="325" y="316.5" as="sourcePoint" />
            <mxPoint x="425" y="316.5" as="targetPoint" />
            <mxPoint as="offset" />
          </mxGeometry>
        </mxCell>
        <mxCell id="_5TekQ03NVME6yGmWp55-24" value="&amp;lt;&amp;lt;include&amp;gt;&amp;gt;" style="html=1;verticalAlign=bottom;endArrow=open;dashed=1;endSize=8;curved=0;rounded=0;entryX=0;entryY=0.5;entryDx=0;entryDy=0;exitX=1;exitY=0.5;exitDx=0;exitDy=0;" parent="1" edge="1">
          <mxGeometry relative="1" as="geometry">
            <mxPoint x="470" y="506.5" as="sourcePoint" />
            <mxPoint x="370" y="506.5" as="targetPoint" />
          </mxGeometry>
        </mxCell>
        <mxCell id="_5TekQ03NVME6yGmWp55-25" value="" style="endArrow=none;html=1;rounded=0;entryX=0.5;entryY=0.5;entryDx=0;entryDy=0;entryPerimeter=0;exitX=1;exitY=0.5;exitDx=0;exitDy=0;" parent="1" source="_5TekQ03NVME6yGmWp55-12" target="_5TekQ03NVME6yGmWp55-17" edge="1">
          <mxGeometry width="50" height="50" relative="1" as="geometry">
            <mxPoint x="400" y="320" as="sourcePoint" />
            <mxPoint x="450" y="270" as="targetPoint" />
          </mxGeometry>
        </mxCell>
        <mxCell id="_5TekQ03NVME6yGmWp55-26" value="" style="endArrow=none;html=1;rounded=0;exitX=1;exitY=0.5;exitDx=0;exitDy=0;entryX=0.5;entryY=0.5;entryDx=0;entryDy=0;entryPerimeter=0;" parent="1" source="_5TekQ03NVME6yGmWp55-14" target="_5TekQ03NVME6yGmWp55-17" edge="1">
          <mxGeometry width="50" height="50" relative="1" as="geometry">
            <mxPoint x="600" y="490" as="sourcePoint" />
            <mxPoint x="650" y="440" as="targetPoint" />
          </mxGeometry>
        </mxCell>
        <mxCell id="_5TekQ03NVME6yGmWp55-27" value="" style="endArrow=none;html=1;rounded=0;exitX=1;exitY=0.5;exitDx=0;exitDy=0;entryX=0.5;entryY=0.5;entryDx=0;entryDy=0;entryPerimeter=0;" parent="1" source="_5TekQ03NVME6yGmWp55-9" target="_5TekQ03NVME6yGmWp55-16" edge="1">
          <mxGeometry width="50" height="50" relative="1" as="geometry">
            <mxPoint x="640" y="260" as="sourcePoint" />
            <mxPoint x="690" y="210" as="targetPoint" />
          </mxGeometry>
        </mxCell>
        <mxCell id="_5TekQ03NVME6yGmWp55-28" value="" style="endArrow=none;html=1;rounded=0;entryX=0.5;entryY=0.5;entryDx=0;entryDy=0;entryPerimeter=0;exitX=1;exitY=0.5;exitDx=0;exitDy=0;" parent="1" source="_5TekQ03NVME6yGmWp55-7" target="_5TekQ03NVME6yGmWp55-15" edge="1">
          <mxGeometry width="50" height="50" relative="1" as="geometry">
            <mxPoint x="600" y="130" as="sourcePoint" />
            <mxPoint x="650" y="80" as="targetPoint" />
          </mxGeometry>
        </mxCell>
        <mxCell id="_5TekQ03NVME6yGmWp55-29" value="Register_User" style="text;html=1;align=center;verticalAlign=middle;whiteSpace=wrap;rounded=0;" parent="1" vertex="1">
          <mxGeometry x="280" y="112" width="60" height="30" as="geometry" />
        </mxCell>
        <mxCell id="_5TekQ03NVME6yGmWp55-30" value="Search_Song" style="text;html=1;align=center;verticalAlign=middle;whiteSpace=wrap;rounded=0;" parent="1" vertex="1">
          <mxGeometry x="280" y="227" width="60" height="30" as="geometry" />
        </mxCell>
        <mxCell id="_5TekQ03NVME6yGmWp55-31" value="Learn_User&lt;div&gt;Preference&lt;/div&gt;" style="text;html=1;align=center;verticalAlign=middle;whiteSpace=wrap;rounded=0;" parent="1" vertex="1">
          <mxGeometry x="280" y="394.5" width="70" height="25" as="geometry" />
        </mxCell>
        <mxCell id="_5TekQ03NVME6yGmWp55-32" value="Recomend_Next&lt;div&gt;Song&lt;/div&gt;" style="text;html=1;align=center;verticalAlign=middle;whiteSpace=wrap;rounded=0;" parent="1" vertex="1">
          <mxGeometry x="285" y="492" width="60" height="30" as="geometry" />
        </mxCell>
        <mxCell id="_5TekQ03NVME6yGmWp55-33" value="Validate_User" style="text;html=1;align=center;verticalAlign=middle;whiteSpace=wrap;rounded=0;" parent="1" vertex="1">
          <mxGeometry x="500" y="112" width="60" height="30" as="geometry" />
        </mxCell>
        <mxCell id="_5TekQ03NVME6yGmWp55-34" value="Validate_Song" style="text;html=1;align=center;verticalAlign=middle;whiteSpace=wrap;rounded=0;" parent="1" vertex="1">
          <mxGeometry x="500" y="232" width="60" height="30" as="geometry" />
        </mxCell>
        <mxCell id="_5TekQ03NVME6yGmWp55-35" value="Recommendation&lt;div&gt;Algorithm&lt;/div&gt;" style="text;html=1;align=center;verticalAlign=middle;whiteSpace=wrap;rounded=0;" parent="1" vertex="1">
          <mxGeometry x="500" y="492" width="60" height="30" as="geometry" />
        </mxCell>
        <mxCell id="e-IDfqev4ULzjRuwvbk1-1" value="&lt;span style=&quot;font-size: 11px; background-color: rgb(255, 255, 255);&quot;&gt;&amp;lt;&amp;lt;External&amp;gt;&amp;gt;&lt;/span&gt;" style="text;html=1;align=center;verticalAlign=middle;resizable=0;points=[];autosize=1;strokeColor=none;fillColor=none;" vertex="1" parent="1">
          <mxGeometry x="674" y="166" width="90" height="30" as="geometry" />
        </mxCell>
        <mxCell id="e-IDfqev4ULzjRuwvbk1-2" value="&lt;span style=&quot;font-size: 11px; background-color: rgb(255, 255, 255);&quot;&gt;&amp;lt;&amp;lt;External&amp;gt;&amp;gt;&lt;/span&gt;" style="text;html=1;align=center;verticalAlign=middle;resizable=0;points=[];autosize=1;strokeColor=none;fillColor=none;" vertex="1" parent="1">
          <mxGeometry x="675" y="284" width="90" height="30" as="geometry" />
        </mxCell>
        <mxCell id="e-IDfqev4ULzjRuwvbk1-3" value="&lt;span style=&quot;font-size: 11px; background-color: rgb(255, 255, 255);&quot;&gt;&amp;lt;&amp;lt;External&amp;gt;&amp;gt;&lt;/span&gt;" style="text;html=1;align=center;verticalAlign=middle;resizable=0;points=[];autosize=1;strokeColor=none;fillColor=none;" vertex="1" parent="1">
          <mxGeometry x="680" y="467" width="90" height="30" as="geometry" />
        </mxCell>
        <mxCell id="e-IDfqev4ULzjRuwvbk1-4" value="&lt;font style=&quot;font-size: 17px;&quot;&gt;Song Recommendation System&lt;/font&gt;" style="text;html=1;align=center;verticalAlign=middle;whiteSpace=wrap;rounded=0;" vertex="1" parent="1">
          <mxGeometry x="280" y="40" width="310" height="10" as="geometry" />
        </mxCell>
      </root>
    </mxGraphModel>
  </diagram>
</mxfile>
